# xmcd CD database file
#
# Track frame offsets:
#	150
#	12457
#	25025
#	39520
#	55070
#	68307
#	83442
#	97050
#	108690
#	123195
#	137380
#	149752
#	163865
#	175992
#	188607
#	202437
#	216972
#	230355
#	243075
#	254982
#
# Disc length: 3547 seconds
#
# Revision: 0
# Processed by: cddbd v1.4PL0 Copyright (c) Steve Scherf et al.
# Submitted via: CDex 1.50Beta7
#
DISCID=1e0dd914
DTITLE=Ella Fitzgerald - The Classic Ella Fitzgerald, Volume Two, I'm Beginning To See The Light
DYEAR=1900
DGENRE=Jazz
TTITLE0=I'm Beginning To See The Light
TTITLE1=Can't Help Lovin' Dat Man
TTITLE2=Into Each Life Some Rain Must Fall
TTITLE3=Benny's Coming Home On Saturday
TTITLE4=This Love Of Mine
TTITLE5=He's My Guy
TTITLE6=Cow Cow Boogie
TTITLE7=It's Only A Paper Moon
TTITLE8=Somebody Nobody Loves
TTITLE9=Time Alone Will Tell
TTITLE10=Mama, Come Home
TTITLE11=A Kiss Goodnight
TTITLE12=Stone Cold Dead In De Market
TTITLE13=Make Love To Me
TTITLE14=Jim
TTITLE15=And Her Tears Flowed Like Wine
TTITLE16=Once Too Often
TTITLE17=Cry You Out Of My Heart
TTITLE18=Petootie Pie
TTITLE19=Flying Home
EXTD=
EXTT0=
EXTT1=
EXTT2=
EXTT3=
EXTT4=
EXTT5=
EXTT6=
EXTT7=
EXTT8=
EXTT9=
EXTT10=
EXTT11=
EXTT12=
EXTT13=
EXTT14=
EXTT15=
EXTT16=
EXTT17=
EXTT18=
EXTT19=
PLAYORDER=
